<svg width="13" height="14" viewBox="0 0 13 14" fill="none" xmlns="http://www.w3.org/2000/svg">
<g clip-path="url(#clip0_6043_2224)">
<path d="M6.1527 1.93756C7.79662 1.93756 7.99129 1.94477 8.63781 1.97361C9.23866 2.00004 9.56312 2.10099 9.77942 2.18511C10.0654 2.29566 10.2721 2.43025 10.486 2.64415C10.7023 2.86046 10.8345 3.06475 10.9451 3.35075C11.0292 3.56706 11.1301 3.89392 11.1566 4.49237C11.1854 5.14128 11.1926 5.33596 11.1926 6.97748C11.1926 8.6214 11.1854 8.81608 11.1566 9.46259C11.1301 10.0634 11.0292 10.3879 10.9451 10.6042C10.8345 10.8902 10.6999 11.0969 10.486 11.3108C10.2697 11.5271 10.0654 11.6593 9.77942 11.7699C9.56312 11.854 9.23625 11.9549 8.63781 11.9813C7.98889 12.0102 7.79422 12.0174 6.1527 12.0174C4.50877 12.0174 4.3141 12.0102 3.66758 11.9813C3.06673 11.9549 2.74228 11.854 2.52597 11.7699C2.23997 11.6593 2.03327 11.5247 1.81937 11.3108C1.60307 11.0945 1.47088 10.8902 1.36032 10.6042C1.2762 10.3879 1.17526 10.061 1.14882 9.46259C1.11998 8.81367 1.11277 8.619 1.11277 6.97748C1.11277 5.33355 1.11998 5.13888 1.14882 4.49237C1.17526 3.89152 1.2762 3.56706 1.36032 3.35075C1.47088 3.06475 1.60547 2.85806 1.81937 2.64415C2.03568 2.42785 2.23997 2.29566 2.52597 2.18511C2.74228 2.10099 3.06914 2.00004 3.66758 1.97361C4.3141 1.94477 4.50877 1.93756 6.1527 1.93756ZM6.1527 0.82959C4.48233 0.82959 4.27324 0.8368 3.61711 0.865641C2.96339 0.894482 2.51395 1.00023 2.1246 1.15164C1.71843 1.31027 1.37474 1.51936 1.03346 1.86305C0.689775 2.20433 0.480679 2.54802 0.322055 2.95179C0.170641 3.34354 0.0648917 3.79057 0.036051 4.4443C0.00721019 5.10283 0 5.31192 0 6.98228C0 8.65265 0.00721019 8.86174 0.036051 9.51787C0.0648917 10.1716 0.170641 10.621 0.322055 11.0104C0.480679 11.4166 0.689775 11.7602 1.03346 12.1015C1.37474 12.4428 1.71843 12.6543 2.1222 12.8105C2.51395 12.9619 2.96098 13.0677 3.61471 13.0965C4.27084 13.1254 4.47993 13.1326 6.15029 13.1326C7.82065 13.1326 8.02975 13.1254 8.68588 13.0965C9.3396 13.0677 9.78903 12.9619 10.1784 12.8105C10.5822 12.6543 10.9258 12.4428 11.2671 12.1015C11.6084 11.7602 11.8199 11.4166 11.9761 11.0128C12.1275 10.621 12.2333 10.174 12.2621 9.52027C12.291 8.86414 12.2982 8.65505 12.2982 6.98469C12.2982 5.31433 12.291 5.10523 12.2621 4.44911C12.2333 3.79538 12.1275 3.34595 11.9761 2.9566C11.8247 2.54802 11.6156 2.20433 11.2719 1.86305C10.9306 1.52177 10.587 1.31027 10.1832 1.15405C9.79144 1.00263 9.34441 0.896885 8.69068 0.868044C8.03215 0.8368 7.82306 0.82959 6.1527 0.82959Z" fill="#475467"/>
<path d="M6.15271 3.82178C4.40785 3.82178 2.99225 5.23738 2.99225 6.98224C2.99225 8.72711 4.40785 10.1427 6.15271 10.1427C7.89758 10.1427 9.31318 8.72711 9.31318 6.98224C9.31318 5.23738 7.89758 3.82178 6.15271 3.82178ZM6.15271 9.03234C5.02072 9.03234 4.10262 8.11424 4.10262 6.98224C4.10262 5.85024 5.02072 4.93215 6.15271 4.93215C7.28471 4.93215 8.20281 5.85024 8.20281 6.98224C8.20281 8.11424 7.28471 9.03234 6.15271 9.03234Z" fill="#475467"/>
<path d="M10.176 3.69683C10.176 4.10541 9.84433 4.43467 9.43816 4.43467C9.02958 4.43467 8.70032 4.103 8.70032 3.69683C8.70032 3.28825 9.03199 2.95898 9.43816 2.95898C9.84433 2.95898 10.176 3.29065 10.176 3.69683Z" fill="#475467"/>
</g>
<defs>
<clipPath id="clip0_6043_2224">
<rect width="12.3054" height="12.3054" fill="white" transform="translate(0 0.82959)"/>
</clipPath>
</defs>
</svg>
